# xmcd
#
# Track frame offsets:
#	150
#	12927
#	30127
#	39505
#	53602
#	66965
#	72245
#	86267
#	96050
#	108540
#	122575
#	135270
#	147130
#	159395
#	172922
#	185440
#	197262
#	211332
#	221800
#	234650
#	255307
#	267065
#	279635
#	290857
#	301480
#
# Disc length: 4357
#
# Revision: 2
# Processed by: cddbd v1.5.1PL0 Copyright (c) Steve Scherf et al.
# Submitted via: CDex 1.50
# Normalized: r1:DSETVAR1,TDELIM( - )
#
DISCID=57110319
DTITLE=Various Artist - The Greatest Yodelling Album Of All Time C.D.1
DYEAR=1900
DGENRE=Country
TTITLE0=Charley Pride - Lovesick Blues
TTITLE1=Mary Schneider - Hooked On Yodelling
TTITLE2=David Houston - Cowpoke
TTITLE3=Wilf Carter - Sleep Little One Sleep
TTITLE4=Vreni Kneubuhl - Mannebarg Jodel
TTITLE5=Roger Whittaker - Swiss Mountaineer
TTITLE6=Franzl Lang - Jodlersang Und Zitherlang
TTITLE7=The Sons Of The Pioneers - Chant Of The Wanderer
TTITLE8=Frank Ifield - Variation On "She Taught Me To Yodel"
TTITLE9=Angela Wiedl - Country Jodler
TTITLE10=Marty Robbins - Two Gun Daddy
TTITLE11=Elton Britt - When It's Peach Pickin' Time Down In Georgia
TTITLE12=Johnny Cash - Been To Georgia On A Fast Train
TTITLE13=Maria Hellwig - Eine Goldmedaille Furs Jodeln
TTITLE14=Patsy Riggir - Silver Wings
TTITLE15=Sepp Viellechner - Das Jodeln, Das Kann Man Nicht Lernen
TTITLE16=Arthur Blanch - Happy-Go-Lucky Cowhand
TTITLE17=Reg Lindsay - Losin' My Blues Tonight
TTITLE18=Hank Locklin - Jealous Heart
TTITLE19=Peter Hinnen - Schweizer Jodel
TTITLE20="ranger" Douglas Green and Riders In The Sky - How Does He Yodel
TTITLE21=Slim Whitman - I'm Casting My Lasso Towards The Sky
TTITLE22=Merle Haggard - Nearly Lose Your Mind
TTITLE23=Roland Steinel - Der Kuckucksjodler
TTITLE24=Rex Dallas - Here's To The Aussie Yodellers
EXTD=
EXTT0=
EXTT1=
EXTT2=
EXTT3=
EXTT4=
EXTT5=
EXTT6=
EXTT7=
EXTT8=
EXTT9=
EXTT10=
EXTT11=
EXTT12=
EXTT13=
EXTT14=
EXTT15=
EXTT16=
EXTT17=
EXTT18=
EXTT19=
EXTT20=
EXTT21=
EXTT22=
EXTT23=
EXTT24=
PLAYORDER=
